<?xml version="1.0" encoding="iso-8859-1"?>
<!-- Uploaded to: SVG Repo, www.svgrepo.com, Generator: SVG Repo Mixer Tools -->
<svg fill="#000000" height="800px" width="800px" version="1.1" id="Layer_1" xmlns="http://www.w3.org/2000/svg" xmlns:xlink="http://www.w3.org/1999/xlink" 
	 viewBox="0 0 512.009 512.009" xml:space="preserve">
<g>
	<g>
		<path d="M125.315,327.788l-6.093-34.133c-0.367-2.031-2.133-3.516-4.198-3.516H40.621c-2.705,0-4.727,2.483-4.181,5.137
			l6.4,30.737c0.836,3.959,4.318,6.793,8.363,6.793h69.914C123.77,332.805,125.784,330.408,125.315,327.788z"/>
	</g>
</g>
<g>
	<g>
		<path d="M103.981,208.321l-6.093-34.133c-0.367-2.031-2.133-3.516-4.198-3.516H15.73c-2.705,0-4.727,2.492-4.173,5.137
			l7.108,34.133c0.418,1.98,2.159,3.396,4.181,3.396h76.937C102.437,213.339,104.451,210.941,103.981,208.321z"/>
	</g>
</g>
<g>
	<g>
		<path d="M93.306,148.588l-6.093-34.133c-0.358-2.031-2.125-3.516-4.19-3.516H8.536c-2.569,0-5.001,1.161-6.622,3.149
			c-1.621,1.988-2.261,4.608-1.732,7.125l6.042,28.996c0.41,1.98,2.159,3.396,4.173,3.396h78.711
			C91.762,153.605,93.775,151.208,93.306,148.588z"/>
	</g>
</g>
<g>
	<g>
		<path d="M114.648,268.055l-6.093-34.133c-0.367-2.031-2.133-3.516-4.198-3.516H28.18c-2.705,0-4.727,2.492-4.181,5.137
			l7.108,34.133c0.418,1.98,2.159,3.396,4.181,3.396h75.162C113.103,273.072,115.117,270.674,114.648,268.055z"/>
	</g>
</g>
<g>
	<g>
		<path d="M200.536,110.939h-91.511c-2.654,0-4.668,2.398-4.198,5.018l6.093,34.133c0.367,2.039,2.133,3.516,4.198,3.516h85.419
			c2.355,0,4.267-1.911,4.267-4.267v-34.133C204.803,112.85,202.891,110.939,200.536,110.939z"/>
	</g>
</g>
<g>
	<g>
		<path d="M317.733,110.939h-91.597c-2.355,0-4.267,1.911-4.267,4.267v34.133c0,2.364,1.911,4.267,4.267,4.267h85.709
			c2.074,0,3.849-1.493,4.207-3.541l5.888-34.133C322.392,113.328,320.378,110.939,317.733,110.939z"/>
	</g>
</g>
<g>
	<g>
		<path d="M388.039,230.405h-64.922c-2.082,0-3.857,1.502-4.207,3.541l-5.888,34.133c-0.452,2.611,1.562,4.992,4.207,4.992h61.21
			c1.911,0,3.593-1.271,4.105-3.115l9.6-34.133C392.911,233.102,390.863,230.405,388.039,230.405z"/>
	</g>
</g>
<g>
	<g>
		<path d="M404.841,170.672h-71.424c-2.074,0-3.849,1.493-4.207,3.541l-5.888,34.133c-0.452,2.611,1.562,4.992,4.207,4.992h67.712
			c1.911,0,3.593-1.271,4.105-3.115l9.6-34.133C409.714,173.369,407.666,170.672,404.841,170.672z"/>
	</g>
</g>
<g>
	<g>
		<path d="M511.755,32.074c-1.143-4.574-5.777-7.356-10.351-6.212l-68.267,17.067c-2.97,0.742-5.316,3.021-6.144,5.965
			l-17.459,62.046h-65.826c-2.074,0-3.849,1.493-4.207,3.541l-5.888,34.133c-0.444,2.611,1.562,4.992,4.207,4.992h74.214
			c1.911,0,3.593-1.271,4.104-3.115l25.941-92.203l63.462-15.863C510.117,41.281,512.89,36.648,511.755,32.074z"/>
	</g>
</g>
<g>
	<g>
		<path d="M200.536,290.139h-59.511c-2.654,0-4.668,2.398-4.198,5.018l6.093,34.133c0.367,2.039,2.133,3.516,4.198,3.516h53.419
			c2.355,0,4.267-1.911,4.267-4.267v-34.133C204.803,292.05,202.891,290.139,200.536,290.139z"/>
	</g>
</g>
<g>
	<g>
		<path d="M297.133,230.405h-12.544c-2.074,0-3.755,1.493-4.164,3.524c-2.202,10.837-8.303,22.639-15.829,32.162
			c-2.244,2.842-0.341,6.98,3.277,6.98h23.381c2.074,0,3.849-1.493,4.198-3.541l5.888-34.133
			C301.793,232.795,299.779,230.405,297.133,230.405z"/>
	</g>
</g>
<g>
	<g>
		<path d="M511.602,437.834c-2.261-16.751-14.891-30.925-31.223-35.277c-12.322-3.285-23.817-0.819-33.126,4.873l-79.343-85.444
			l7.424-26.411c0.768-2.722-1.28-5.419-4.105-5.419H312.8c-2.074,0-3.849,1.493-4.207,3.541l-5.888,34.133
			c-0.435,2.594,1.579,4.975,4.224,4.975h47.753l39.62,42.667H59.736c-3.806,0-7.159,2.526-8.201,6.187l-5.641,19.738
			c-1.084-0.077-2.125-0.324-3.226-0.324c-26.53,0-47.479,24.337-41.702,51.857c3.388,16.102,16.401,29.124,32.503,32.503
			c27.529,5.794,51.866-15.164,51.866-41.694c0-16.41-9.412-30.515-23.031-37.658l3.866-13.542h343.433
			c0.162,0,0.299-0.085,0.461-0.094l24.653,26.547c-6.699,9.344-9.856,21.385-6.98,34.27c3.729,16.717,17.792,29.926,34.714,32.597
			C491.011,490.365,515.45,466.292,511.602,437.834z M68.269,443.739c0,15.684-14.182,28.126-30.396,25.165
			c-10.138-1.852-18.449-10.121-20.343-20.25c-2.935-15.727,8.593-29.397,23.535-30.345l-6.596,23.091
			c-1.297,4.531,1.331,9.25,5.862,10.547c0.785,0.222,1.579,0.333,2.347,0.333c3.712,0,7.125-2.449,8.201-6.195l6.613-23.142
			C63.986,427.594,68.269,435.154,68.269,443.739z M465.436,469.049c-9.873-1.468-18.116-9.079-20.787-18.697
			c-1.894-6.818-0.691-13.09,2.091-18.398l16.333,17.596c1.69,1.809,3.977,2.722,6.263,2.722c2.082,0,4.164-0.751,5.811-2.278
			c3.448-3.208,3.652-8.61,0.444-12.066l-16.41-17.672c4.676-2.031,10.052-2.748,15.693-1.519
			c9.805,2.125,17.758,10.223,19.601,20.087C497.76,456.419,482.93,471.643,465.436,469.049z"/>
	</g>
</g>
<g>
	<g>
		<path d="M307.433,170.672h-39.561c-3.61,0-5.521,4.147-3.277,6.98c7.535,9.532,13.628,21.325,15.829,32.162
			c0.41,2.039,2.091,3.524,4.164,3.524h16.956c2.082,0,3.857-1.493,4.207-3.541l5.888-34.133
			C312.092,173.061,310.078,170.672,307.433,170.672z"/>
	</g>
</g>
<g>
	<g>
		<path d="M286.834,290.139h-60.698c-2.355,0-4.267,1.911-4.267,4.267v34.133c0,2.355,1.911,4.267,4.267,4.267h54.818
			c2.074,0,3.849-1.493,4.207-3.541l5.888-34.133C291.493,292.528,289.479,290.139,286.834,290.139z"/>
	</g>
</g>
<g>
	<g>
		<path d="M201.611,171.986c-18.799,4.19-33.971,19.362-38.17,38.161c-8.329,37.291,24.328,69.939,61.611,61.619
			c18.799-4.198,33.971-19.371,38.17-38.17C271.55,196.306,238.893,163.658,201.611,171.986z M238.936,230.405h-12.8
			c-2.355,0-4.267,1.911-4.267,4.267v12.8c0,4.71-3.814,8.533-8.533,8.533c-4.719,0-8.533-3.823-8.533-8.533v-12.8
			c0-2.355-1.911-4.267-4.267-4.267h-12.8c-4.719,0-8.533-3.823-8.533-8.533c0-4.71,3.814-8.533,8.533-8.533h12.8
			c2.364,0,4.267-1.911,4.267-4.267v-12.8c0-4.71,3.814-8.533,8.533-8.533c4.719,0,8.533,3.823,8.533,8.533v12.8
			c0,2.355,1.911,4.267,4.267,4.267h12.8c4.719,0,8.533,3.823,8.533,8.533C247.469,226.583,243.655,230.405,238.936,230.405z"/>
	</g>
</g>
<g>
	<g>
		<path d="M158.868,170.672h-39.56c-2.645,0-4.651,2.381-4.207,4.992l5.888,34.133c0.35,2.048,2.125,3.541,4.198,3.541h16.956
			c2.074,0,3.755-1.485,4.173-3.516c2.202-10.837,8.303-22.639,15.829-32.162C164.38,174.819,162.477,170.672,158.868,170.672z"/>
	</g>
</g>
<g>
	<g>
		<path d="M162.145,266.092c-7.526-9.532-13.628-21.325-15.829-32.162c-0.418-2.031-2.099-3.524-4.164-3.524h-12.544
			c-2.645,0-4.651,2.381-4.207,4.992l5.888,34.133c0.35,2.048,2.125,3.541,4.198,3.541h23.381
			C162.477,273.072,164.389,268.925,162.145,266.092z"/>
	</g>
</g>
</svg>